<svg id="svg" version="1.1" xmlns="http://www.w3.org/2000/svg" xmlns:xlink="http://www.w3.org/1999/xlink" width="400" height="400" viewBox="0, 0, 400,400"><g id="svgg"><path id="path0" d="M213.400 90.000 C 213.544 90.233,213.137 90.400,212.424 90.400 C 211.751 90.400,211.200 90.580,211.200 90.800 C 211.200 91.020,211.002 91.200,210.760 91.200 C 210.188 91.200,207.600 93.788,207.600 94.360 C 207.600 94.602,207.420 94.800,207.200 94.800 C 206.980 94.800,206.800 95.160,206.800 95.600 C 206.800 96.040,206.620 96.400,206.400 96.400 C 206.180 96.400,206.000 97.120,206.000 98.000 C 206.000 98.880,205.820 99.600,205.600 99.600 C 205.380 99.600,205.200 100.320,205.200 101.200 C 205.200 102.080,205.380 102.800,205.600 102.800 C 205.820 102.800,206.000 103.610,206.000 104.600 C 206.000 105.590,206.180 106.400,206.400 106.400 C 206.620 106.400,206.800 106.670,206.800 107.000 C 206.800 107.330,206.980 107.600,207.200 107.600 C 207.420 107.600,207.600 107.851,207.600 108.157 C 207.600 108.729,208.427 109.200,209.434 109.200 C 210.694 109.200,268.400 167.540,268.400 168.815 C 268.400 169.733,268.580 170.000,269.200 170.000 C 269.640 170.000,270.000 170.151,270.000 170.336 C 270.000 170.854,271.902 171.600,273.224 171.600 C 273.877 171.600,274.755 171.815,275.176 172.078 C 275.769 172.448,276.177 172.448,276.989 172.078 C 277.566 171.815,278.659 171.600,279.419 171.600 C 280.178 171.600,280.800 171.420,280.800 171.200 C 280.800 170.980,281.160 170.800,281.600 170.800 C 282.040 170.800,282.400 170.664,282.400 170.498 C 282.400 170.331,282.911 169.969,283.535 169.693 C 284.159 169.417,284.924 168.698,285.235 168.095 C 285.546 167.493,286.115 166.651,286.500 166.225 C 286.885 165.798,287.200 165.033,287.200 164.525 C 287.200 164.016,287.380 163.600,287.600 163.600 C 287.839 163.600,288.000 162.067,288.000 159.800 C 288.000 157.533,287.839 156.000,287.600 156.000 C 287.380 156.000,287.200 155.728,287.200 155.395 C 287.200 155.062,286.975 154.401,286.700 153.927 C 285.843 152.449,224.417 91.200,223.792 91.200 C 223.466 91.200,223.200 91.020,223.200 90.800 C 223.200 90.580,222.840 90.400,222.400 90.400 C 221.960 90.400,221.600 90.220,221.600 90.000 C 221.600 89.759,219.925 89.600,217.376 89.600 C 214.663 89.600,213.241 89.743,213.400 90.000 M120.200 182.800 C 120.064 183.020,119.603 183.200,119.176 183.200 C 118.749 183.200,118.400 183.380,118.400 183.600 C 118.400 183.820,118.175 184.000,117.900 184.000 C 117.172 184.001,115.200 185.796,115.200 186.458 C 115.200 186.769,114.840 187.283,114.400 187.600 C 113.960 187.917,113.600 188.497,113.600 188.888 C 113.600 189.280,113.420 189.600,113.200 189.600 C 112.980 189.600,112.800 190.485,112.800 191.567 C 112.800 192.777,112.608 193.603,112.300 193.714 C 111.900 193.859,111.900 194.065,112.300 194.742 C 112.575 195.208,112.800 196.312,112.800 197.195 C 112.800 198.078,112.980 198.800,113.200 198.800 C 113.420 198.800,113.600 199.160,113.600 199.600 C 113.600 200.040,113.780 200.400,114.000 200.400 C 114.220 200.400,114.409 200.715,114.420 201.100 C 114.431 201.485,115.884 203.150,117.650 204.800 C 119.416 206.450,121.972 208.926,123.330 210.303 C 125.562 212.564,133.453 220.467,139.701 226.699 C 141.023 228.017,144.894 231.886,148.304 235.296 C 151.713 238.707,155.384 242.375,156.461 243.448 C 157.537 244.522,161.010 248.010,164.178 251.200 C 171.792 258.868,175.940 262.800,176.413 262.800 C 176.626 262.800,176.800 262.980,176.800 263.200 C 176.800 263.420,177.160 263.600,177.600 263.600 C 178.040 263.600,178.400 263.780,178.400 264.000 C 178.400 264.220,179.264 264.400,180.320 264.400 C 181.376 264.400,182.456 264.616,182.720 264.880 C 183.093 265.253,183.307 265.253,183.680 264.880 C 183.944 264.616,185.024 264.400,186.080 264.400 C 187.136 264.400,188.000 264.220,188.000 264.000 C 188.000 263.780,188.268 263.600,188.595 263.600 C 189.624 263.600,193.200 260.292,193.200 259.341 C 193.200 259.043,193.380 258.800,193.600 258.800 C 193.820 258.800,194.000 258.440,194.000 258.000 C 194.000 257.560,194.180 257.200,194.400 257.200 C 194.641 257.200,194.800 255.533,194.800 253.000 C 194.800 250.467,194.641 248.800,194.400 248.800 C 194.180 248.800,194.000 248.395,194.000 247.900 C 193.999 246.757,192.274 244.720,191.544 245.000 C 190.808 245.282,132.174 186.633,132.269 185.709 C 132.360 184.825,130.438 183.201,129.300 183.200 C 128.805 183.200,128.400 183.020,128.400 182.800 C 128.400 182.560,126.808 182.400,124.424 182.400 C 122.204 182.400,120.338 182.577,120.200 182.800 M244.587 198.692 C 240.515 203.210,225.473 218.245,222.100 221.169 C 220.505 222.551,219.200 223.815,219.200 223.976 C 219.200 224.389,222.297 227.600,222.696 227.600 C 222.876 227.600,223.283 227.960,223.600 228.400 C 223.917 228.840,224.587 229.200,225.088 229.200 C 225.590 229.200,226.000 229.380,226.000 229.600 C 226.000 229.820,226.900 230.000,228.000 230.000 C 229.100 230.000,230.000 229.820,230.000 229.600 C 230.000 229.380,230.360 229.200,230.800 229.200 C 231.332 229.200,231.600 228.933,231.600 228.404 C 231.600 227.381,250.102 208.862,251.671 208.315 C 252.841 207.907,253.528 201.200,252.400 201.200 C 252.180 201.200,252.000 200.926,252.000 200.591 C 252.000 200.101,247.938 195.600,247.495 195.600 C 247.428 195.600,246.119 196.991,244.587 198.692 M38.200 342.800 C 38.064 343.020,37.342 343.200,36.595 343.200 C 35.849 343.200,34.734 343.402,34.119 343.650 C 33.503 343.897,32.640 344.235,32.200 344.401 C 30.157 345.170,26.000 347.355,26.000 347.660 C 26.000 347.847,25.802 348.000,25.560 348.000 C 25.319 348.000,24.642 348.495,24.057 349.100 C 23.471 349.705,22.760 350.248,22.476 350.307 C 21.844 350.437,19.200 353.037,19.200 353.527 C 19.200 353.722,18.660 354.446,18.000 355.137 C 17.340 355.828,16.800 356.625,16.800 356.908 C 16.800 357.191,16.440 357.683,16.000 358.000 C 15.560 358.317,15.200 358.897,15.200 359.288 C 15.200 359.680,15.020 360.000,14.800 360.000 C 14.580 360.000,14.400 360.360,14.400 360.800 C 14.400 361.240,14.220 361.600,14.000 361.600 C 13.780 361.600,13.600 362.050,13.600 362.600 C 13.600 363.150,13.420 363.600,13.200 363.600 C 12.980 363.600,12.800 364.104,12.800 364.720 C 12.800 365.336,12.637 366.011,12.439 366.220 C 11.601 367.101,10.792 380.800,11.578 380.800 C 11.810 380.800,12.000 381.340,12.000 382.000 C 12.000 382.660,12.180 383.200,12.400 383.200 C 12.620 383.200,12.800 383.452,12.800 383.760 C 12.800 384.488,15.512 387.200,16.240 387.200 C 16.548 387.200,16.800 387.380,16.800 387.600 C 16.800 387.820,17.340 388.000,18.000 388.000 C 18.660 388.000,19.200 388.180,19.200 388.400 C 19.200 388.666,60.925 388.800,143.576 388.800 C 226.063 388.800,268.036 388.665,268.200 388.400 C 268.336 388.180,268.800 388.000,269.232 388.000 C 271.322 388.000,275.200 383.977,275.200 381.809 C 275.200 381.254,275.380 380.800,275.600 380.800 C 275.845 380.800,276.000 378.867,276.000 375.800 C 276.000 372.733,275.845 370.800,275.600 370.800 C 275.380 370.800,275.196 370.035,275.190 369.100 C 275.172 365.997,272.397 358.212,271.114 357.667 C 270.941 357.593,270.800 357.287,270.800 356.985 C 270.800 356.331,262.651 348.000,262.011 348.000 C 261.766 348.000,261.180 347.640,260.708 347.200 C 260.236 346.760,259.613 346.400,259.325 346.400 C 259.036 346.400,258.800 346.220,258.800 346.000 C 258.800 345.780,258.440 345.600,258.000 345.600 C 257.560 345.600,257.200 345.420,257.200 345.200 C 257.200 344.980,256.761 344.800,256.224 344.800 C 255.687 344.800,255.136 344.620,255.000 344.400 C 254.864 344.180,254.324 344.000,253.800 344.000 C 253.276 344.000,252.748 343.839,252.626 343.642 C 252.401 343.278,250.627 342.936,246.955 342.548 C 245.126 342.355,244.888 342.420,244.693 343.166 L 244.475 344.000 143.852 344.000 C 43.638 344.000,43.226 343.997,42.800 343.200 C 42.332 342.325,38.689 342.008,38.200 342.800 M82.044 368.032 C 85.554 370.531,85.079 376.146,81.192 378.099 C 79.307 379.047,48.471 379.174,46.244 378.244 C 42.045 376.490,41.217 371.424,44.638 368.420 L 46.028 367.200 63.452 367.200 C 80.456 367.200,80.905 367.220,82.044 368.032 " stroke="none" fill="#0c4c5c" fill-rule="evenodd"></path><path id="path1" d="M28.200 11.600 C 28.064 11.820,27.601 12.000,27.170 12.000 C 26.062 12.000,23.200 12.935,23.200 13.297 C 23.200 13.464,22.917 13.600,22.571 13.600 C 22.226 13.600,21.671 13.872,21.339 14.204 C 21.007 14.536,20.615 14.743,20.468 14.664 C 20.110 14.473,14.636 20.099,14.470 20.828 C 14.398 21.143,14.173 21.460,13.970 21.533 C 13.766 21.607,13.600 22.012,13.600 22.433 C 13.600 22.855,13.420 23.200,13.200 23.200 C 12.980 23.200,12.800 23.549,12.800 23.976 C 12.800 24.403,12.620 24.864,12.400 25.000 C 12.180 25.136,12.000 25.957,12.000 26.824 C 12.000 27.691,11.820 28.400,11.600 28.400 C 11.065 28.400,11.046 108.886,11.581 109.421 C 11.790 109.630,12.007 110.476,12.063 111.301 C 12.118 112.125,12.307 112.800,12.482 112.800 C 12.657 112.800,12.800 113.160,12.800 113.600 C 12.800 114.040,12.980 114.400,13.200 114.400 C 13.420 114.400,13.600 114.760,13.600 115.200 C 13.600 115.640,13.780 116.000,14.000 116.000 C 14.220 116.000,14.400 116.278,14.400 116.618 C 14.400 116.958,14.805 117.651,15.300 118.158 C 15.795 118.666,16.605 119.596,17.100 120.227 C 17.595 120.858,18.000 121.226,18.000 121.045 C 18.000 120.864,18.495 121.237,19.100 121.875 C 20.135 122.966,22.643 124.389,23.839 124.565 C 24.135 124.608,24.502 124.769,24.655 124.922 C 24.808 125.075,25.343 125.200,25.843 125.200 C 26.343 125.200,26.864 125.380,27.000 125.600 C 27.162 125.862,39.009 126.000,61.237 126.000 L 95.227 126.000 96.520 127.300 C 97.231 128.015,98.236 129.198,98.754 129.928 C 99.271 130.658,100.888 132.461,102.347 133.934 C 103.806 135.407,105.515 137.239,106.144 138.006 C 106.773 138.773,108.128 140.300,109.154 141.400 C 110.180 142.500,111.643 144.210,112.405 145.200 C 117.610 151.966,121.505 153.722,124.553 150.674 C 126.434 148.793,126.525 148.187,126.683 136.500 L 126.826 126.000 131.213 126.000 C 133.871 126.000,135.600 125.842,135.600 125.600 C 135.600 125.380,136.135 125.200,136.789 125.200 C 138.090 125.200,142.400 123.321,142.400 122.753 C 142.400 122.559,142.641 122.400,142.936 122.400 C 143.649 122.400,146.853 119.288,147.568 117.900 C 147.880 117.295,148.285 116.800,148.468 116.800 C 148.650 116.800,148.800 116.440,148.800 116.000 C 148.800 115.560,148.980 115.200,149.200 115.200 C 149.420 115.200,149.600 114.851,149.600 114.424 C 149.600 113.997,149.780 113.536,150.000 113.400 C 150.220 113.264,150.400 112.724,150.400 112.200 C 150.400 111.676,150.580 111.136,150.800 111.000 C 151.350 110.660,151.352 27.112,150.802 26.562 C 150.584 26.344,150.364 25.678,150.315 25.082 C 150.266 24.487,150.085 24.000,149.913 24.000 C 149.741 24.000,149.600 23.640,149.600 23.200 C 149.600 22.760,149.420 22.400,149.200 22.400 C 148.980 22.400,148.800 22.080,148.800 21.688 C 148.800 21.297,148.440 20.717,148.000 20.400 C 147.560 20.083,147.200 19.631,147.200 19.395 C 147.200 18.918,144.537 15.975,144.165 16.041 C 144.035 16.063,143.493 15.704,142.961 15.241 C 142.429 14.778,141.860 14.396,141.697 14.391 C 141.534 14.386,140.950 14.030,140.400 13.600 C 139.850 13.170,139.006 12.814,138.524 12.809 C 138.042 12.804,137.536 12.620,137.400 12.400 C 137.264 12.180,136.533 12.000,135.776 12.000 C 135.019 12.000,134.400 11.820,134.400 11.600 C 134.400 11.046,28.542 11.046,28.200 11.600 M82.714 28.830 C 84.544 29.468,85.200 30.762,85.200 33.737 C 85.200 36.589,85.301 36.730,88.059 37.749 C 94.006 39.944,98.679 46.148,99.354 52.745 C 100.057 59.626,92.576 60.970,91.617 54.135 C 89.769 40.976,71.400 41.398,71.400 54.600 C 71.400 60.632,75.023 64.197,81.797 64.828 C 87.300 65.341,90.903 66.945,94.262 70.375 C 99.660 75.888,101.011 84.000,97.677 90.888 C 95.329 95.740,92.951 97.830,86.700 100.537 L 85.200 101.187 85.200 104.158 C 85.200 108.456,82.876 110.294,79.592 108.596 C 77.973 107.759,77.600 106.864,77.600 103.820 L 77.600 101.187 76.100 100.533 C 72.189 98.826,70.939 98.036,68.803 95.919 C 65.311 92.457,62.719 86.089,63.376 82.586 C 64.254 77.908,71.177 78.451,71.204 83.200 C 71.258 92.696,84.047 96.802,89.618 89.112 C 94.665 82.144,90.186 73.644,81.003 72.763 C 61.720 70.912,56.396 46.386,73.536 38.368 C 75.001 37.683,76.470 36.986,76.800 36.820 C 77.221 36.608,77.460 35.635,77.600 33.559 C 77.830 30.158,78.034 29.722,79.748 28.976 C 81.293 28.304,81.216 28.308,82.714 28.830 M85.423 226.685 C 85.303 226.996,85.046 227.152,84.851 227.032 C 84.279 226.678,82.400 228.825,82.400 229.831 C 82.400 230.338,82.220 230.864,82.000 231.000 C 81.780 231.136,81.600 231.946,81.600 232.800 C 81.600 233.654,81.780 234.464,82.000 234.600 C 82.220 234.736,82.400 235.260,82.400 235.765 C 82.400 236.270,82.895 237.166,83.500 237.757 C 87.471 241.635,89.154 243.112,89.362 242.905 C 89.493 242.774,89.605 242.922,89.611 243.233 C 89.617 243.545,90.456 244.520,91.476 245.400 C 92.497 246.280,95.467 249.115,98.077 251.699 C 100.754 254.350,103.464 256.667,104.294 257.013 C 105.794 257.640,109.084 257.711,109.447 257.124 C 109.557 256.946,109.915 256.800,110.242 256.800 C 110.920 256.800,112.800 255.049,112.800 254.418 C 112.800 254.188,112.980 254.000,113.200 254.000 C 113.435 254.000,113.600 252.600,113.600 250.600 C 113.600 248.600,113.435 247.200,113.200 247.200 C 112.980 247.200,112.800 246.930,112.800 246.600 C 112.800 246.270,112.620 246.000,112.400 246.000 C 112.180 246.000,112.000 245.807,112.000 245.571 C 112.000 245.336,111.730 244.873,111.400 244.543 C 111.070 244.213,110.800 244.027,110.800 244.131 C 110.800 244.366,105.113 238.982,98.200 232.200 C 95.285 229.340,92.654 226.941,92.353 226.868 C 92.053 226.795,91.699 226.560,91.566 226.345 C 91.175 225.712,85.679 226.016,85.423 226.685 M65.200 267.102 C 65.200 267.269,64.693 267.629,64.074 267.903 C 59.645 269.863,61.057 280.000,65.758 280.000 C 66.305 280.000,66.864 280.180,67.000 280.400 C 67.136 280.620,67.867 280.800,68.624 280.800 C 69.381 280.800,70.000 280.980,70.000 281.200 C 70.000 281.420,70.709 281.600,71.576 281.600 C 72.443 281.600,73.264 281.780,73.400 282.000 C 73.536 282.220,74.267 282.400,75.024 282.400 C 75.781 282.400,76.400 282.561,76.400 282.758 C 76.400 282.955,77.075 283.215,77.900 283.335 C 80.463 283.710,82.183 284.089,82.600 284.371 C 82.820 284.520,83.630 284.694,84.400 284.758 C 85.170 284.822,85.860 285.037,85.933 285.237 C 86.007 285.437,86.671 285.600,87.410 285.600 C 88.148 285.600,88.864 285.780,89.000 286.000 C 89.136 286.220,90.752 286.400,92.592 286.400 L 95.937 286.400 97.768 284.568 C 101.449 280.888,99.315 273.200,94.613 273.200 C 93.836 273.200,93.200 273.020,93.200 272.800 C 93.200 272.580,92.581 272.400,91.824 272.400 C 91.067 272.400,90.336 272.220,90.200 272.000 C 90.064 271.780,89.333 271.600,88.576 271.600 C 87.819 271.600,87.200 271.420,87.200 271.200 C 87.200 270.980,86.480 270.800,85.600 270.800 C 84.720 270.800,84.000 270.620,84.000 270.400 C 84.000 270.180,83.280 270.000,82.400 270.000 C 81.520 270.000,80.800 269.820,80.800 269.600 C 80.800 269.380,80.080 269.200,79.200 269.200 C 78.320 269.200,77.600 269.020,77.600 268.800 C 77.600 268.580,76.880 268.400,76.000 268.400 C 75.120 268.400,74.400 268.220,74.400 268.000 C 74.400 267.780,73.781 267.600,73.024 267.600 C 72.267 267.600,71.536 267.420,71.400 267.200 C 71.115 266.739,65.200 266.646,65.200 267.102 " stroke="none" fill="#fcc446" fill-rule="evenodd"></path><path id="path2" d="M79.748 28.976 C 78.034 29.722,77.830 30.158,77.600 33.559 C 77.460 35.635,77.221 36.608,76.800 36.820 C 76.470 36.986,75.001 37.683,73.536 38.368 C 56.396 46.386,61.720 70.912,81.003 72.763 C 90.186 73.644,94.665 82.144,89.618 89.112 C 84.047 96.802,71.258 92.696,71.204 83.200 C 71.177 78.451,64.254 77.908,63.376 82.586 C 62.719 86.089,65.311 92.457,68.803 95.919 C 70.939 98.036,72.189 98.826,76.100 100.533 L 77.600 101.187 77.600 103.820 C 77.600 106.864,77.973 107.759,79.592 108.596 C 82.876 110.294,85.200 108.456,85.200 104.158 L 85.200 101.187 86.700 100.537 C 92.951 97.830,95.329 95.740,97.677 90.888 C 99.524 87.072,100.066 81.152,98.857 78.000 C 95.680 69.719,90.383 65.629,81.797 64.828 C 75.023 64.197,71.400 60.632,71.400 54.600 C 71.400 41.398,89.769 40.976,91.617 54.135 C 92.576 60.970,100.057 59.626,99.354 52.745 C 98.679 46.148,94.006 39.944,88.059 37.749 C 85.301 36.730,85.200 36.589,85.200 33.737 C 85.200 30.762,84.544 29.468,82.714 28.830 C 81.216 28.308,81.293 28.304,79.748 28.976 " stroke="none" fill="#fcfbf9" fill-rule="evenodd"></path><path id="path3" d="M206.800 109.745 C 206.030 110.199,205.162 110.803,204.871 111.086 C 204.581 111.369,204.184 111.600,203.990 111.600 C 203.795 111.600,203.186 112.050,202.636 112.600 C 202.086 113.150,201.398 113.600,201.106 113.600 C 200.815 113.600,200.317 113.960,200.000 114.400 C 199.683 114.840,199.175 115.200,198.872 115.200 C 198.569 115.200,197.825 115.731,197.218 116.381 C 196.611 117.030,195.881 117.615,195.596 117.681 C 195.311 117.746,194.591 118.295,193.995 118.900 C 193.400 119.505,192.780 120.000,192.617 120.000 C 192.454 120.000,191.817 120.540,191.200 121.200 C 190.583 121.860,189.867 122.400,189.608 122.400 C 189.349 122.400,188.473 123.091,187.661 123.936 C 186.849 124.782,185.750 125.706,185.218 125.991 C 184.015 126.634,183.594 126.976,181.387 129.100 C 180.416 130.035,179.508 130.800,179.371 130.800 C 179.233 130.800,176.483 133.411,173.260 136.602 C 158.856 150.865,156.800 152.980,156.800 153.540 C 156.800 153.742,155.675 155.091,154.300 156.538 C 150.411 160.632,148.800 162.482,148.800 162.856 C 148.800 163.045,148.620 163.200,148.400 163.200 C 148.180 163.200,148.000 163.380,148.000 163.600 C 148.000 163.819,147.280 164.741,146.400 165.648 C 145.520 166.555,144.800 167.454,144.800 167.647 C 144.800 167.840,144.170 168.666,143.400 169.482 C 142.630 170.299,142.000 171.223,142.000 171.536 C 142.000 171.850,141.683 172.397,141.297 172.753 C 140.910 173.109,139.786 174.480,138.800 175.800 C 137.814 177.120,136.690 178.491,136.303 178.847 C 135.917 179.203,135.600 179.748,135.600 180.059 C 135.600 180.369,135.240 180.883,134.800 181.200 C 134.360 181.517,134.000 182.057,134.000 182.400 C 134.000 182.743,133.640 183.283,133.200 183.600 C 131.206 185.037,130.893 184.687,161.703 215.497 C 192.513 246.307,192.163 245.994,193.600 244.000 C 193.917 243.560,194.457 243.200,194.800 243.200 C 195.143 243.200,195.683 242.840,196.000 242.400 C 196.317 241.960,196.854 241.600,197.192 241.600 C 197.531 241.600,198.293 241.150,198.887 240.600 C 199.480 240.050,200.115 239.600,200.299 239.600 C 200.482 239.600,201.428 238.880,202.400 238.000 C 203.372 237.120,204.318 236.400,204.502 236.400 C 204.686 236.400,205.264 235.995,205.787 235.500 C 207.900 233.500,209.231 232.400,209.536 232.400 C 209.713 232.400,210.822 231.500,212.000 230.400 C 213.178 229.300,214.286 228.400,214.462 228.400 C 214.991 228.400,219.097 224.249,219.254 223.555 C 219.334 223.200,220.750 221.685,222.400 220.190 C 229.230 213.999,238.768 204.415,243.998 198.490 C 245.206 197.121,246.417 196.000,246.689 196.000 C 247.550 196.000,252.690 190.469,255.114 186.934 C 255.617 186.200,256.161 185.600,256.323 185.600 C 256.485 185.600,256.973 184.925,257.406 184.100 C 257.840 183.275,258.691 182.123,259.297 181.540 C 259.904 180.956,260.400 180.263,260.400 180.000 C 260.400 179.737,260.940 179.017,261.600 178.400 C 262.260 177.783,262.800 177.031,262.800 176.728 C 262.800 176.425,263.160 175.917,263.600 175.600 C 264.040 175.283,264.400 174.833,264.400 174.600 C 264.400 174.367,264.760 173.917,265.200 173.600 C 265.640 173.283,266.000 172.793,266.000 172.512 C 266.000 172.230,266.180 172.000,266.400 172.000 C 266.620 172.000,266.800 171.730,266.800 171.400 C 266.800 171.070,266.980 170.800,267.200 170.800 C 267.420 170.800,267.600 170.530,267.600 170.200 C 267.600 169.870,267.763 169.600,267.963 169.600 C 269.408 169.600,264.544 164.431,239.052 138.874 C 207.756 107.498,208.882 108.515,206.800 109.745 M241.289 218.519 C 235.960 223.864,231.600 228.366,231.600 228.524 C 231.600 228.681,233.265 230.488,235.300 232.539 C 237.335 234.590,240.080 237.495,241.400 238.994 C 242.720 240.493,246.545 244.494,249.900 247.886 C 253.255 251.278,256.000 254.144,256.000 254.255 C 256.000 254.677,257.116 255.551,257.352 255.314 C 257.489 255.178,257.600 255.281,257.600 255.544 C 257.600 256.157,258.923 257.613,265.900 264.681 C 269.035 267.857,271.600 270.546,271.600 270.657 C 271.600 271.077,272.716 271.950,272.952 271.714 C 273.089 271.578,273.200 271.698,273.200 271.980 C 273.200 272.526,273.947 273.345,281.200 280.751 C 283.730 283.334,286.159 285.934,286.598 286.528 C 287.037 287.122,287.712 287.709,288.098 287.831 C 288.484 287.954,288.800 288.255,288.800 288.501 C 288.800 288.747,289.697 289.860,290.793 290.974 C 297.372 297.662,301.520 302.022,302.360 303.132 C 302.888 303.829,303.563 304.400,303.860 304.400 C 304.157 304.400,304.355 304.546,304.300 304.725 C 304.245 304.904,305.415 306.274,306.900 307.769 C 308.385 309.264,309.600 310.647,309.600 310.844 C 309.600 311.040,309.870 311.200,310.200 311.200 C 310.530 311.200,310.800 311.361,310.800 311.559 C 310.800 312.021,316.948 318.553,330.122 332.090 C 332.633 334.669,334.625 336.841,334.550 336.917 C 334.474 336.992,336.165 338.778,338.306 340.885 C 340.448 342.992,343.640 346.293,345.400 348.220 C 350.342 353.631,358.710 362.000,359.179 362.000 C 359.411 362.000,359.600 362.151,359.600 362.336 C 359.600 362.521,360.320 362.910,361.200 363.200 C 362.080 363.490,362.800 363.879,362.800 364.064 C 362.800 364.249,363.329 364.400,363.976 364.400 C 364.623 364.400,365.264 364.580,365.400 364.800 C 365.540 365.027,367.537 365.200,370.024 365.200 C 372.675 365.200,374.400 365.042,374.400 364.800 C 374.400 364.580,374.940 364.400,375.600 364.400 C 376.260 364.400,376.800 364.220,376.800 364.000 C 376.800 363.780,377.034 363.600,377.320 363.600 C 378.056 363.600,379.993 362.659,379.997 362.300 C 379.999 362.135,380.371 362.000,380.824 362.000 C 381.277 362.000,381.536 361.820,381.400 361.600 C 381.264 361.380,381.361 361.200,381.616 361.200 C 382.272 361.200,385.481 357.718,386.088 356.347 C 386.367 355.716,386.731 355.200,386.898 355.200 C 387.064 355.200,387.200 354.851,387.200 354.424 C 387.200 353.997,387.380 353.536,387.600 353.400 C 387.820 353.264,388.000 352.443,388.000 351.576 C 388.000 350.709,388.194 350.000,388.430 350.000 C 388.718 350.000,388.793 348.972,388.658 346.900 C 388.383 342.724,387.990 340.400,387.558 340.400 C 387.361 340.400,387.196 339.995,387.191 339.500 C 387.186 339.005,386.830 338.150,386.400 337.600 C 385.970 337.050,385.614 336.458,385.609 336.284 C 385.595 335.789,373.594 324.000,373.104 324.000 C 372.863 324.000,372.778 323.889,372.914 323.752 C 373.224 323.442,372.215 322.400,371.605 322.400 C 371.356 322.400,371.264 322.220,371.400 322.000 C 371.536 321.780,371.356 321.600,371.000 321.600 C 370.644 321.600,370.464 321.420,370.600 321.200 C 370.736 320.980,370.645 320.800,370.398 320.800 C 370.151 320.800,369.494 320.260,368.939 319.600 C 368.383 318.940,367.761 318.400,367.556 318.400 C 367.351 318.400,365.400 316.618,363.219 314.439 C 361.039 312.260,359.153 310.580,359.028 310.706 C 358.902 310.831,358.799 310.678,358.799 310.367 C 358.798 310.055,358.271 309.447,357.627 309.016 C 356.984 308.585,356.545 308.090,356.652 307.916 C 356.759 307.742,356.556 307.600,356.200 307.600 C 355.844 307.600,355.664 307.420,355.800 307.200 C 355.936 306.980,355.756 306.800,355.400 306.800 C 355.044 306.800,354.864 306.620,355.000 306.400 C 355.136 306.180,354.956 306.000,354.600 306.000 C 354.244 306.000,354.064 305.820,354.200 305.600 C 354.336 305.380,354.210 305.200,353.920 305.200 C 353.630 305.200,353.168 304.840,352.893 304.400 C 352.618 303.960,352.223 303.600,352.015 303.600 C 351.807 303.600,349.013 300.990,345.807 297.800 C 342.600 294.610,339.791 292.000,339.565 292.000 C 339.338 292.000,339.264 291.820,339.400 291.600 C 339.536 291.380,339.356 291.200,339.000 291.200 C 338.644 291.200,338.432 291.065,338.529 290.900 C 338.625 290.735,338.004 290.060,337.149 289.400 C 336.293 288.740,332.064 284.741,327.752 280.513 C 323.440 276.285,319.569 272.717,319.150 272.584 C 318.731 272.451,318.492 272.175,318.618 271.971 C 318.744 271.767,318.667 271.600,318.446 271.600 C 318.226 271.600,315.350 268.945,312.055 265.700 C 304.492 258.251,302.915 256.800,302.382 256.800 C 302.146 256.800,302.064 256.620,302.200 256.400 C 302.336 256.180,302.266 256.000,302.045 256.000 C 301.823 256.000,298.870 253.255,295.481 249.900 C 288.707 243.194,286.520 241.200,285.938 241.200 C 285.726 241.200,285.664 241.020,285.800 240.800 C 285.936 240.580,285.856 240.400,285.623 240.400 C 285.390 240.400,282.512 237.718,279.227 234.440 C 275.942 231.162,273.152 228.582,273.027 228.706 C 272.902 228.831,272.799 228.678,272.797 228.367 C 272.796 228.055,272.132 227.350,271.323 226.800 C 270.513 226.250,266.735 222.698,262.926 218.907 C 259.116 215.115,256.000 212.092,256.000 212.188 C 256.000 212.284,255.210 211.561,254.244 210.581 C 251.681 207.981,251.974 207.801,241.289 218.519 M52.000 317.200 C 52.000 317.420,51.460 317.600,50.800 317.600 C 50.140 317.600,49.600 317.780,49.600 318.000 C 49.600 318.220,49.330 318.400,49.000 318.400 C 48.670 318.400,48.400 318.580,48.400 318.800 C 48.400 319.020,48.215 319.200,47.989 319.200 C 47.462 319.200,44.000 322.651,44.000 323.177 C 44.000 323.396,43.640 324.217,43.200 325.000 C 41.892 327.329,41.977 342.683,43.300 343.002 C 43.795 343.121,89.290 343.169,144.400 343.109 L 244.600 343.000 244.708 334.300 C 244.779 328.585,244.676 325.600,244.408 325.600 C 244.184 325.600,244.000 325.240,244.000 324.800 C 244.000 324.360,243.820 324.000,243.600 324.000 C 243.380 324.000,243.200 323.712,243.200 323.360 C 243.200 323.009,242.641 322.199,241.958 321.560 C 241.274 320.922,240.837 320.400,240.986 320.400 C 241.135 320.400,240.987 320.130,240.657 319.800 C 240.327 319.470,239.864 319.200,239.629 319.200 C 239.393 319.200,239.199 319.065,239.197 318.900 C 239.192 318.453,237.174 317.600,236.120 317.600 C 235.614 317.600,235.200 317.420,235.200 317.200 C 235.200 316.934,204.400 316.800,143.600 316.800 C 82.800 316.800,52.000 316.934,52.000 317.200 " stroke="none" fill="#fb7344" fill-rule="evenodd"></path><path id="path4" d="M238.676 138.479 C 254.785 154.582,268.038 168.127,268.128 168.579 C 268.281 169.347,268.295 169.343,268.346 168.515 C 268.397 167.682,210.569 109.200,209.694 109.200 C 209.525 109.200,222.567 122.375,238.676 138.479 M132.090 186.071 C 132.240 186.521,190.913 245.200,191.212 245.200 C 191.340 245.200,184.750 238.520,176.567 230.356 C 168.383 222.192,155.003 208.812,146.833 200.622 C 138.662 192.433,132.028 185.885,132.090 186.071 M243.998 198.490 C 238.763 204.421,229.211 214.018,222.400 220.188 C 218.485 223.735,218.196 224.555,222.033 221.228 C 228.075 215.989,247.550 196.000,246.612 196.000 C 246.383 196.000,245.206 197.121,243.998 198.490 M241.232 218.001 C 235.934 223.282,231.600 227.746,231.600 227.920 C 231.600 228.095,235.875 223.939,241.100 218.683 C 246.325 213.428,250.960 208.976,251.400 208.790 C 252.038 208.519,252.065 208.446,251.532 208.425 C 251.164 208.411,246.529 212.721,241.232 218.001 M42.933 343.400 C 43.118 343.955,244.482 343.955,244.667 343.400 C 244.755 343.134,210.956 343.000,143.800 343.000 C 76.644 343.000,42.845 343.134,42.933 343.400 M44.638 368.420 C 41.217 371.424,42.045 376.490,46.244 378.244 C 48.471 379.174,79.307 379.047,81.192 378.099 C 85.079 376.146,85.554 370.531,82.044 368.032 C 80.905 367.220,80.456 367.200,63.452 367.200 L 46.028 367.200 44.638 368.420 " stroke="none" fill="#3c6c7c" fill-rule="evenodd"></path></g></svg>